<?xml version="1.0" standalone="no"?>
<!DOCTYPE svg PUBLIC "-//W3C//DTD SVG 20010904//EN"
 "http://www.w3.org/TR/2001/REC-SVG-20010904/DTD/svg10.dtd">
<svg version="1.0" xmlns="http://www.w3.org/2000/svg"
 width="60.000000pt" height="60.000000pt" viewBox="0 0 60.000000 60.000000"
 preserveAspectRatio="xMidYMid meet">

<g transform="translate(0.000000,60.000000) scale(0.100000,-0.100000)"
fill="#000000" stroke="none">
<path d="M335 586 c-43 -19 -71 -54 -85 -106 -9 -33 -41 -80 -126 -181 -106
-128 -129 -168 -104 -184 7 -4 6 -13 -1 -26 -14 -27 -8 -70 12 -82 13 -8 24
-6 44 7 33 22 27 31 -9 15 -38 -18 -53 0 -36 41 9 23 17 29 29 24 9 -4 41 -13
71 -19 30 -7 68 -18 83 -24 42 -17 67 -12 28 6 l-35 15 40 17 c21 10 47 27 56
37 20 23 48 86 48 109 0 26 -17 8 -24 -26 -8 -43 -40 -84 -80 -103 -64 -30
-179 -16 -215 28 -23 27 1 40 78 41 60 0 73 3 96 25 31 28 40 44 49 83 4 16 2
27 -4 27 -5 0 -10 -8 -10 -18 0 -32 -48 -90 -85 -102 -38 -13 -85 -7 -85 11 0
5 42 59 92 119 l93 109 27 -26 c16 -15 28 -22 28 -17 0 6 -11 21 -25 34 -29
27 -31 49 -10 90 39 76 127 94 189 39 41 -36 54 -84 38 -143 -8 -31 -7 -46 3
-66 32 -64 31 -67 -40 -80 -76 -14 -74 -11 -78 -145 -2 -89 -2 -90 -27 -90
-33 0 -42 44 -11 52 23 6 29 23 8 23 -16 0 -47 -32 -47 -48 0 -15 36 -52 50
-52 6 0 19 9 30 20 16 16 20 33 20 84 0 70 -2 68 73 82 20 3 40 11 44 17 4 6
-3 8 -18 4 -13 -3 -41 -9 -62 -13 -37 -6 -39 -5 -35 17 2 20 12 26 53 36 28 6
65 12 83 12 l33 1 -3 -97 c-3 -97 -3 -98 -28 -98 -31 0 -40 33 -14 52 15 11
15 13 2 13 -45 0 -48 -75 -3 -86 48 -12 56 8 53 125 -3 98 -5 106 -23 109 -30
4 -58 87 -45 133 6 19 8 47 4 62 -5 26 -4 28 14 18 26 -14 35 -40 20 -59 -11
-13 -10 -14 2 -10 35 11 12 88 -26 88 -7 0 -22 13 -33 29 -20 28 -85 61 -119
61 -9 -1 -30 -7 -47 -14z"/>
<path d="M420 492 c0 -4 9 -8 20 -8 11 0 20 4 20 8 0 4 -9 8 -20 8 -11 0 -20
-4 -20 -8z"/>
<path d="M358 353 c-2 -35 -7 -48 -18 -48 -10 0 -14 8 -13 23 2 12 -2 22 -8
22 -6 0 -9 -12 -7 -27 2 -22 8 -28 28 -28 22 0 25 5 28 43 3 34 7 42 23 42 11
0 17 5 14 10 -3 6 -15 10 -25 10 -15 0 -19 -9 -22 -47z"/>
</g>
</svg>
