<?xml version="1.0" standalone="no"?>
<!DOCTYPE svg PUBLIC "-//W3C//DTD SVG 20010904//EN"
 "http://www.w3.org/TR/2001/REC-SVG-20010904/DTD/svg10.dtd">
<svg version="1.0" xmlns="http://www.w3.org/2000/svg"
 width="64.000000pt" height="64.000000pt" viewBox="0 0 64.000000 64.000000"
 preserveAspectRatio="xMidYMid meet">

<g transform="translate(0.000000,64.000000) scale(0.100000,-0.100000)"
fill="#000000" stroke="none">
<path d="M110 575 c-20 -25 -8 -50 25 -50 21 0 31 5 33 18 4 21 -14 47 -33 47
-7 0 -18 -7 -25 -15z"/>
<path d="M226 571 c-4 -5 -2 -12 3 -15 5 -4 12 -2 15 3 4 5 2 12 -3 15 -5 4
-12 2 -15 -3z"/>
<path d="M255 518 c-116 -33 -214 -64 -219 -68 -7 -7 7 -64 65 -263 15 -51 24
-67 35 -63 11 4 14 -4 14 -34 l0 -40 233 2 232 3 0 165 0 165 -44 5 -44 5 -24
85 c-14 47 -28 88 -31 91 -4 4 -101 -20 -217 -53z m335 -298 l0 -150 -207 2
-208 3 -3 148 -3 147 211 0 210 0 0 -150z"/>
<path d="M230 330 c0 -5 -9 -10 -21 -10 -12 0 -19 -5 -17 -12 7 -20 34 -21 53
-2 14 14 18 15 25 3 11 -17 24 -5 17 16 -7 16 -57 21 -57 5z"/>
<path d="M400 320 c0 -5 5 -10 10 -10 6 0 10 5 10 10 0 6 -4 10 -10 10 -5 0
-10 -4 -10 -10z"/>
<path d="M460 323 c0 -17 45 -28 68 -18 35 15 26 25 -23 25 -25 0 -45 -3 -45
-7z"/>
<path d="M328 303 c-20 -24 -118 -185 -118 -195 0 -4 77 -8 170 -8 112 0 170
4 170 10 0 15 -90 170 -99 170 -4 0 -15 -14 -26 -32 -14 -25 -20 -29 -27 -17
-5 7 -19 31 -32 52 -21 36 -23 37 -38 20z m45 -84 c23 -41 31 -49 42 -39 8 7
17 20 20 31 10 29 20 23 49 -31 l27 -50 -130 0 -131 0 43 70 c23 38 44 69 47
70 3 0 18 -23 33 -51z"/>
<path d="M520 236 c0 -9 5 -16 10 -16 6 0 10 4 10 9 0 6 -4 13 -10 16 -5 3
-10 -1 -10 -9z"/>
<path d="M210 220 c0 -5 5 -10 10 -10 6 0 10 5 10 10 0 6 -4 10 -10 10 -5 0
-10 -4 -10 -10z"/>
<path d="M516 558 c-27 -38 12 -81 53 -58 27 14 28 56 2 70 -28 15 -38 13 -55
-12z m44 -16 c0 -13 -12 -22 -22 -16 -10 6 -1 24 13 24 5 0 9 -4 9 -8z"/>
<path d="M50 530 c0 -5 5 -10 10 -10 6 0 10 5 10 10 0 6 -4 10 -10 10 -5 0
-10 -4 -10 -10z"/>
<path d="M545 440 c4 -6 11 -8 16 -5 14 9 11 15 -7 15 -8 0 -12 -5 -9 -10z"/>
<path d="M55 191 c-3 -5 -1 -12 5 -16 5 -3 10 1 10 9 0 18 -6 21 -15 7z"/>
<path d="M55 99 c-9 -29 15 -53 44 -44 17 5 21 13 19 33 -4 36 -53 45 -63 11z"/>
</g>
</svg>
