<?xml version="1.0" standalone="no"?>
<!DOCTYPE svg PUBLIC "-//W3C//DTD SVG 20010904//EN"
 "http://www.w3.org/TR/2001/REC-SVG-20010904/DTD/svg10.dtd">
<svg version="1.0" xmlns="http://www.w3.org/2000/svg"
 width="50.000000pt" height="50.000000pt" viewBox="0 0 50.000000 50.000000"
 preserveAspectRatio="xMidYMid meet">

<g transform="translate(0.000000,50.000000) scale(0.100000,-0.100000)"
fill="#000000" stroke="none">
<path d="M145 410 c-12 -14 -33 -20 -74 -22 l-56 -3 0 -155 0 -155 235 0 235
0 0 155 0 155 -56 3 c-41 2 -62 8 -74 22 -15 17 -31 20 -105 20 -74 0 -90 -3
-105 -20z m154 -95 c16 -8 34 -27 41 -44 7 -19 17 -28 26 -24 21 8 17 -11 -6
-32 -19 -17 -21 -17 -40 0 -24 21 -26 40 -5 31 23 -9 18 12 -11 41 -23 22 -31
25 -72 19 -43 -5 -45 -4 -28 9 25 19 59 19 95 0z m-117 -62 c22 -20 24 -37 3
-29 -24 9 -18 -22 11 -50 25 -26 61 -29 107 -9 27 12 20 -11 -8 -23 -56 -26
-116 -2 -136 52 -8 21 -17 32 -26 29 -18 -7 -16 7 4 29 20 22 22 22 45 1z"/>
</g>
</svg>
